<svg xmlns="http://www.w3.org/2000/svg" viewBox="0 0 512 512"><defs><linearGradient id="g1" x1="0" x2="1" y1="0" y2="1"><stop offset="0%" stop-color="#2fa23b"/><stop offset="100%" stop-color="#0b7a2c"/></linearGradient><linearGradient id="g2" x1="1" x2="0" y1="0" y2="1"><stop offset="0%" stop-color="#1aa3e8"/><stop offset="100%" stop-color="#0a5da8"/></linearGradient><linearGradient id="sun" x1="0" x2="0" y1="0" y2="1"><stop offset="0%" stop-color="#f7c258"/><stop offset="100%" stop-color="#f0a72f"/></linearGradient></defs><rect width="512" height="512" fill="white"/><circle cx="256" cy="256" r="204" fill="none" stroke="#ffffff" stroke-width="16"/><path d="M69 183c34-76 108-129 196-129 41 0 79 11 111 31-21 4-47 24-74 46-12-3-24-4-36-4-87 0-162 50-197 126z" fill="url(#g1)"/><path d="M444 192c11 24 17 51 17 79 0 114-92 206-205 206-59 0-112-25-150-64 20 7 45 11 71 11 110 0 199-89 199-199 0-16-2-32-6-47 31-8 57-5 74 14z" fill="url(#g2)"/><circle cx="256" cy="127" r="46" fill="url(#sun)"/><g fill="url(#sun)"><rect x="250" y="20" width="12" height="46" rx="6"/><rect x="184" y="33" width="12" height="38" rx="6" transform="rotate(-26 190 52)"/><rect x="316" y="33" width="12" height="38" rx="6" transform="rotate(26 322 52)"/><rect x="145" y="79" width="12" height="34" rx="6" transform="rotate(-50 151 96)"/><rect x="355" y="79" width="12" height="34" rx="6" transform="rotate(50 361 96)"/></g><circle cx="256" cy="185" r="32" fill="#fff"/><rect x="236" y="214" width="40" height="128" rx="20" fill="#fff"/><rect x="146" y="212" width="160" height="24" rx="12" fill="#fff" transform="rotate(28 226 224)"/><rect x="206" y="212" width="160" height="24" rx="12" fill="#fff" transform="rotate(-28 286 224)"/><rect x="213" y="322" width="22" height="102" rx="11" fill="#fff" transform="rotate(16 224 373)"/><rect x="277" y="322" width="22" height="102" rx="11" fill="#fff" transform="rotate(-16 288 373)"/></svg>